<?xml version="1.0" encoding="UTF-8" standalone="no"?>
<!-- Created with Inkscape (http://www.inkscape.org/) -->

<svg
   width="103mm"
   height="43mm"
   viewBox="0 0 103 43"
   version="1.1"
   id="svg5086"
   inkscape:version="1.1.1 (3bf5ae0d25, 2021-09-20)"
   sodipodi:docname="dark.svg"
   xmlns:inkscape="http://www.inkscape.org/namespaces/inkscape"
   xmlns:sodipodi="http://sodipodi.sourceforge.net/DTD/sodipodi-0.dtd"
   xmlns="http://www.w3.org/2000/svg"
   xmlns:svg="http://www.w3.org/2000/svg">
  <sodipodi:namedview
     id="namedview5088"
     pagecolor="#ffffff"
     bordercolor="#666666"
     borderopacity="1.0"
     inkscape:pageshadow="2"
     inkscape:pageopacity="0.0"
     inkscape:pagecheckerboard="0"
     inkscape:document-units="mm"
     showgrid="false"
     inkscape:zoom="2.1971895"
     inkscape:cx="180.45781"
     inkscape:cy="73.047865"
     inkscape:window-width="1920"
     inkscape:window-height="1027"
     inkscape:window-x="-8"
     inkscape:window-y="-6"
     inkscape:window-maximized="1"
     inkscape:current-layer="layer1" />
  <defs
     id="defs5083">
    <filter
       inkscape:label="Flatten Transparency"
       inkscape:menu="Fill and Transparency"
       inkscape:menu-tooltip="Adds a white opaque background"
       style="color-interpolation-filters:sRGB"
       id="filter100767"
       x="-0.00067294853"
       y="-0.0016233783"
       width="1.0013459"
       height="1.0032468">
      <feComposite
         in2="SourceGraphic"
         operator="arithmetic"
         k4="1"
         result="result1"
         id="feComposite100759"
         k1="0"
         k2="0"
         k3="0" />
      <feMerge
         id="feMerge100765"
         result="fbSourceGraphic">
        <feMergeNode
           in="result1"
           id="feMergeNode100761" />
        <feMergeNode
           in="SourceGraphic"
           id="feMergeNode100763" />
      </feMerge>
      <feColorMatrix
         result="fbSourceGraphicAlpha"
         in="fbSourceGraphic"
         values="0 0 0 -1 0 0 0 0 -1 0 0 0 0 -1 0 0 0 0 1 0"
         id="feColorMatrix100797" />
      <feComposite
         in2="fbSourceGraphic"
         id="feComposite100799"
         operator="arithmetic"
         k4="1"
         result="result1"
         in="fbSourceGraphic"
         k1="0"
         k2="0"
         k3="0" />
      <feMerge
         id="feMerge100801"
         result="fbSourceGraphic">
        <feMergeNode
           id="feMergeNode100803"
           in="result1" />
        <feMergeNode
           id="feMergeNode100805"
           in="fbSourceGraphic" />
      </feMerge>
      <feColorMatrix
         result="fbSourceGraphicAlpha"
         in="fbSourceGraphic"
         values="0 0 0 -1 0 0 0 0 -1 0 0 0 0 -1 0 0 0 0 1 0"
         id="feColorMatrix4936" />
      <feComposite
         in2="fbSourceGraphic"
         id="feComposite4938"
         operator="arithmetic"
         k4="1"
         result="result1"
         in="fbSourceGraphic"
         k1="0"
         k2="0"
         k3="0" />
      <feMerge
         id="feMerge4940">
        <feMergeNode
           id="feMergeNode4942"
           in="result1" />
        <feMergeNode
           id="feMergeNode4944"
           in="fbSourceGraphic" />
      </feMerge>
    </filter>
  </defs>
  <g
     inkscape:label="Layer 1"
     inkscape:groupmode="layer"
     id="layer1">
    <path
       style="mix-blend-mode:screen;fill:#0a418b;fill-opacity:1;fill-rule:nonzero;stroke:#0a418b;stroke-width:0.139069;stroke-opacity:1;filter:url(#filter100767)"
       d="M 52.099672,21.527103 V 0.18004336 h 25.72773 25.727718 V 21.527103 42.874173 H 77.827402 52.099672 Z m 18.5079,16.89285 c 0.31563,-0.72443 2.10731,-4.94683 3.9815,-9.38313 1.87418,-4.43629 3.5176,-8.28091 3.65204,-8.54359 0.22482,-0.43928 0.25577,-0.45601 0.38576,-0.20859 0.25557,0.48638 2.06501,4.77661 4.04323,9.58659 2.09249,5.0878 3.8611,9.29217 4.0912,9.72568 0.18283,0.34444 0.0417,0.62298 3.10547,-6.1325 6.20932,-13.69162 10.945578,-24.4871296 10.827178,-24.6787096 -0.32695,-0.52902 -0.953428,0.76949 -7.321478,15.1751096 -2.21466,5.00995 -4.04324,9.12584 -4.0635,9.14642 -0.0203,0.0205 -0.38932,-0.81529 -0.82011,-1.85747 l -0.78327,-1.89487 2.69681,-6.41713 c 4.76856,-11.34689 5.8002,-13.8876696 5.72181,-14.0919496 -0.24554,-0.63984 -0.85241,0.66808 -5.93263,12.7857596 -1.38686,3.30801 -2.59907,6.16409 -2.6938,6.34685 -0.18929,0.36516 -0.51972,-0.37055 -5.02121,-11.17966 -2.40649,-5.77854 -3.85037,-9.0394796 -4.0025,-9.0394796 -0.12475,0 -0.57809,1.0557 -5.13581,11.9599196 -1.56654,3.74792 -3.03138,7.22062 -3.2552,7.71713 l -0.40695,0.90273 -2.03925,-4.79666 c -1.12159,-2.63817 -2.99701,-7.04958 -4.16761,-9.80315 l -2.12835,-5.0064896 -2.73729,0.005 c -1.50551,0.003 -2.77647,0.0449 -2.82436,0.0928 -0.13409,0.13408 2.6855,6.4593396 7.79812,17.4937596 3.75318,8.10036 3.94955,8.50542 4.08339,8.4227 0.18082,-0.11175 0.96267,-1.93642 6.02238,-14.05499 2.52288,-6.04254 4.63722,-11.0763096 4.69855,-11.1861396 0.12722,-0.22781 0.77764,0.9967996 1.5133,2.8492096 l 0.44469,1.11976 -4.57596,10.97923 c -5.10743,12.2544 -6.19932,15.00832 -6.077,15.32709 0.12687,0.33062 0.28585,0.0955 0.92085,-1.36189 z m -70.38056953,1.33819 c 0,-2.95218 0.002,-2.97632 0.29095,-2.90088 l 0.29095,0.0761 -0.29095,-0.57031 c -0.29076,-0.56992 -0.29095,-0.5824 -0.29095,-18.44619 V 0.04096336 H 25.954732 51.682462 V 21.388043 42.735103 H 25.954732 0.22700247 Z M 30.167942,37.045633 c 2.86098,-0.74515 4.85022,-2.29046 6.10259,-4.74069 l 0.46203,-0.90395 v -2.71874 -2.71875 l -0.54571,-1.10565 c -1.02324,-2.07317 -2.16776,-2.99149 -6.7554,-5.42028 -4.80225,-2.54243 -5.64402,-3.18508 -6.06754,-4.63226 -0.32726,-1.11819 0.0354,-2.41037 0.83498,-2.9754 0.53788,-0.38009 1.72101,-0.8025 2.24773,-0.8025 h 0.48159 v -2.0213096 -2.02128 l 0.73011,0.0829 c 2.09441,0.23802 2.95884,0.4906 4.76311,1.3918 0.99434,0.49665 1.85483,0.90209 1.91219,0.90098 0.0574,-0.001 0.10425,-0.0914 0.10425,-0.20049 0,-0.49575 -2.09162,-1.71179 -3.96346,-2.30429 -1.3283,-0.42045 -4.5436,-0.54328 -6.01604,-0.2298 -5.23188,1.11382 -7.89082,6.3374496 -5.60289,11.0071796 1.02575,2.0936 2.97608,3.66441 7.5164,6.05372 4.35639,2.29253 5.11411,2.9599 5.24751,4.62184 0.10196,1.27019 -0.14905,2.18373 -0.80468,2.92856 -0.67251,0.76402 -1.5245,1.13821 -3.09037,1.35725 l -1.21339,0.16975 v 2.06618 2.06617 l -0.79965,-0.0892 c -3.17452,-0.35395 -6.19924,-1.78681 -8.30501,-3.93421 -0.45653,-0.46556 -0.87895,-0.84648 -0.93871,-0.84648 -0.0598,0 -0.10862,0.15691 -0.10862,0.34869 0,0.5009 1.90872,2.3374 3.29032,3.16581 1.1723,0.70293 3.35575,1.55144 4.54715,1.76707 1.19659,0.21657 4.72773,0.0612 5.97149,-0.26273 z"
       id="path22805"
       inkscape:export-filename="C:\Users\jdn\SMALL_WHITE.png"
       inkscape:export-xdpi="96"
       inkscape:export-ydpi="96" />
  </g>
</svg>
