<?xml version="1.0" encoding="UTF-8" standalone="no"?>
<!-- Created with Inkscape (http://www.inkscape.org/) -->

<svg
   width="297mm"
   height="210mm"
   viewBox="0 0 297 210"
   version="1.1"
   id="svg3285"
   inkscape:version="1.1.1 (3bf5ae0d25, 2021-09-20)"
   sodipodi:docname="white-banner.svg"
   xmlns:inkscape="http://www.inkscape.org/namespaces/inkscape"
   xmlns:sodipodi="http://sodipodi.sourceforge.net/DTD/sodipodi-0.dtd"
   xmlns="http://www.w3.org/2000/svg"
   xmlns:svg="http://www.w3.org/2000/svg">
  <sodipodi:namedview
     id="namedview3287"
     pagecolor="#ffffff"
     bordercolor="#666666"
     borderopacity="1.0"
     inkscape:pageshadow="2"
     inkscape:pageopacity="0.0"
     inkscape:pagecheckerboard="true"
     inkscape:document-units="mm"
     showgrid="false"
     showborder="false"
     inkscape:zoom="0.3750491"
     inkscape:cx="3.9994763"
     inkscape:cy="534.59667"
     inkscape:window-width="1920"
     inkscape:window-height="1027"
     inkscape:window-x="-8"
     inkscape:window-y="-6"
     inkscape:window-maximized="1"
     inkscape:current-layer="layer1" />
  <defs
     id="defs3282">
    <filter
       inkscape:label="Flatten Transparency"
       inkscape:menu="Fill and Transparency"
       inkscape:menu-tooltip="Adds a white opaque background"
       style="color-interpolation-filters:sRGB"
       id="filter100663"
       x="-0.00067294844"
       y="-0.0016233783"
       width="1.0013459"
       height="1.0032468">
      <feComposite
         in2="SourceGraphic"
         operator="arithmetic"
         k4="1"
         result="result1"
         id="feComposite100655"
         k1="0"
         k2="0"
         k3="0" />
      <feMerge
         id="feMerge100661">
        <feMergeNode
           in="result1"
           id="feMergeNode100657" />
        <feMergeNode
           in="SourceGraphic"
           id="feMergeNode100659" />
      </feMerge>
    </filter>
    <rect
       x="559.37244"
       y="391.47766"
       width="960.23676"
       height="216.15761"
       id="rect85580" />
  </defs>
  <g
     inkscape:label="Layer 1"
     inkscape:groupmode="layer"
     id="layer1">
    <rect
       style="fill:#ffffff;fill-opacity:1;stroke-width:0.271884"
       id="rect85566"
       width="381.51962"
       height="144.64703"
       x="-51.430836"
       y="45.488834"
       ry="0"
       inkscape:export-filename="C:\Users\jdn\LARGE_WHITE_DETAILED.png"
       inkscape:export-xdpi="96"
       inkscape:export-ydpi="96" />
    <text
       xml:space="preserve"
       style="font-style:normal;font-weight:normal;font-size:7.87546px;line-height:1.25;font-family:sans-serif;fill:#0a418b;fill-opacity:1;stroke:none;stroke-width:0.196887"
       x="134.02829"
       y="152.85083"
       id="text86494"
       inkscape:export-filename="C:\Users\jdn\LARGE_WHITE_DETAILED.png"
       inkscape:export-xdpi="96"
       inkscape:export-ydpi="96"
       transform="scale(1.0489993,0.95328946)"><tspan
         sodipodi:role="line"
         id="tspan86492"
         style="text-align:center;text-anchor:middle;fill:#0a418b;fill-opacity:1;stroke-width:0.196887"
         x="134.02829"
         y="152.85083">WEALTH MANAGEMENT | INVETSMENT ADVISORY | FINANCIAL PLANNING </tspan><tspan
         sodipodi:role="line"
         style="text-align:center;text-anchor:middle;fill:#0a418b;fill-opacity:1;stroke-width:0.196887"
         x="134.02829"
         y="162.69516"
         id="tspan88274">TAX CONSULTING | INSURANCE CONSULTING</tspan></text>
    <g
       id="g100595"
       transform="matrix(0.78060277,0,0,0.70938117,-222.80891,-277.16266)"
       inkscape:export-filename="C:\Users\jdn\LARGE_WHITE_DETAILED.png"
       inkscape:export-xdpi="96"
       inkscape:export-ydpi="96"
       style="filter:url(#filter100663)">
      <text
         xml:space="preserve"
         transform="matrix(0.23478236,0,0,0.27799464,278.91923,401.40052)"
         id="text85570"
         style="font-style:normal;font-weight:normal;font-size:40px;line-height:1.25;font-family:sans-serif;white-space:pre;shape-inside:url(#rect85580);fill:#0a418b;fill-opacity:1;stroke:#ffffff"><tspan
           x="559.37305"
           y="510.1517"
           id="tspan3405"><tspan
             style="font-size:130.077px;-inkscape-font-specification:'sans-serif, Normal'"
             id="tspan3403">secure wealth</tspan></tspan></text>
      <text
         xml:space="preserve"
         style="font-style:normal;font-weight:normal;font-size:8.74995px;line-height:1.25;font-family:sans-serif;fill:#0a418b;fill-opacity:1;stroke:none;stroke-width:0.21875"
         x="443.53522"
         y="542.94293"
         id="text85574"
         transform="scale(0.97621292,1.0243667)"><tspan
           sodipodi:role="line"
           id="tspan85572"
           style="font-style:normal;font-variant:normal;font-weight:normal;font-stretch:normal;font-size:7.14239px;font-family:sans-serif;-inkscape-font-specification:'sans-serif, Normal';font-variant-ligatures:normal;font-variant-caps:normal;font-variant-numeric:normal;font-variant-east-asian:normal;fill:#0a418b;fill-opacity:1;stroke-width:0.21875"
           x="443.53522"
           y="542.94293">FINANCIAL MANAGEMENT BY DEBASISH SWAIN</tspan></text>
      <rect
         id="rect85576"
         width="206.76826"
         height="0.49883777"
         x="412.50391"
         y="546.69116"
         style="fill:#0a418b;fill-opacity:1;stroke-width:0.134208" />
      <path
         style="mix-blend-mode:screen;fill:#0a418b;fill-opacity:1;fill-rule:nonzero;stroke:#0a418b;stroke-width:0.139069;stroke-opacity:1"
         d="m 350.36802,537.10469 v -21.34706 h 25.72773 25.72773 v 21.34706 21.34707 h -25.72773 -25.72773 z m 18.5079,16.89285 c 0.31563,-0.72443 2.10731,-4.94683 3.9815,-9.38313 1.87418,-4.43629 3.5176,-8.28091 3.65204,-8.54359 0.22482,-0.43928 0.25577,-0.45601 0.38576,-0.20859 0.25557,0.48638 2.06501,4.77661 4.04323,9.58659 2.09249,5.0878 3.8611,9.29217 4.0912,9.72568 0.18283,0.34444 0.0417,0.62298 3.10547,-6.1325 6.20932,-13.69162 10.94559,-24.48713 10.82719,-24.67871 -0.32695,-0.52902 -0.95344,0.76949 -7.32149,15.17511 -2.21466,5.00995 -4.04324,9.12584 -4.0635,9.14642 -0.0203,0.0205 -0.38932,-0.81529 -0.82011,-1.85747 l -0.78327,-1.89487 2.69681,-6.41713 c 4.76856,-11.34689 5.8002,-13.88767 5.72181,-14.09195 -0.24554,-0.63984 -0.85241,0.66808 -5.93263,12.78576 -1.38686,3.30801 -2.59907,6.16409 -2.6938,6.34685 -0.18929,0.36516 -0.51972,-0.37055 -5.02121,-11.17966 -2.40649,-5.77854 -3.85037,-9.03948 -4.0025,-9.03948 -0.12475,0 -0.57809,1.0557 -5.13581,11.95992 -1.56654,3.74792 -3.03138,7.22062 -3.2552,7.71713 l -0.40695,0.90273 -2.03925,-4.79666 c -1.12159,-2.63817 -2.99701,-7.04958 -4.16761,-9.80315 l -2.12835,-5.00649 -2.73729,0.005 c -1.50551,0.003 -2.77647,0.0449 -2.82436,0.0928 -0.13409,0.13408 2.6855,6.45934 7.79812,17.49376 3.75318,8.10036 3.94955,8.50542 4.08339,8.4227 0.18082,-0.11175 0.96267,-1.93642 6.02238,-14.05499 2.52288,-6.04254 4.63722,-11.07631 4.69855,-11.18614 0.12722,-0.22781 0.77764,0.9968 1.5133,2.84921 l 0.44469,1.11976 -4.57596,10.97923 c -5.10743,12.2544 -6.19932,15.00832 -6.077,15.32709 0.12687,0.33062 0.28585,0.0955 0.92085,-1.36189 z m -70.38057,1.33819 c 0,-2.95218 0.002,-2.97632 0.29095,-2.90088 l 0.29095,0.0761 -0.29095,-0.57031 c -0.29076,-0.56992 -0.29095,-0.5824 -0.29095,-18.44619 v -17.8759 h 25.72773 25.72773 v 21.34708 21.34706 h -25.72773 -25.72773 z m 29.94094,-2.71251 c 2.86098,-0.74515 4.85022,-2.29046 6.10259,-4.74069 l 0.46203,-0.90395 v -2.71874 -2.71875 l -0.54571,-1.10565 c -1.02324,-2.07317 -2.16776,-2.99149 -6.7554,-5.42028 -4.80225,-2.54243 -5.64402,-3.18508 -6.06754,-4.63226 -0.32726,-1.11819 0.0354,-2.41037 0.83498,-2.9754 0.53788,-0.38009 1.72101,-0.8025 2.24773,-0.8025 h 0.48159 v -2.02131 -2.02128 l 0.73011,0.0829 c 2.09441,0.23802 2.95884,0.4906 4.76311,1.3918 0.99434,0.49665 1.85483,0.90209 1.91219,0.90098 0.0574,-10e-4 0.10425,-0.0914 0.10425,-0.20049 0,-0.49575 -2.09162,-1.71179 -3.96346,-2.30429 -1.3283,-0.42045 -4.5436,-0.54328 -6.01604,-0.2298 -5.23188,1.11382 -7.89082,6.33745 -5.60289,11.00718 1.02575,2.0936 2.97608,3.66441 7.5164,6.05372 4.35639,2.29253 5.11411,2.9599 5.24751,4.62184 0.10196,1.27019 -0.14905,2.18373 -0.80468,2.92856 -0.67251,0.76402 -1.5245,1.13821 -3.09037,1.35725 l -1.21339,0.16975 v 2.06618 2.06617 l -0.79965,-0.0892 c -3.17452,-0.35395 -6.19924,-1.78681 -8.30501,-3.93421 -0.45653,-0.46556 -0.87895,-0.84648 -0.93871,-0.84648 -0.0598,0 -0.10862,0.15691 -0.10862,0.34869 0,0.5009 1.90872,2.3374 3.29032,3.16581 1.1723,0.70293 3.35575,1.55144 4.54715,1.76707 1.19659,0.21657 4.72773,0.0612 5.97149,-0.26273 z"
         id="path85578" />
      <text
         xml:space="preserve"
         style="font-style:normal;font-weight:normal;font-size:6.46663px;line-height:1.25;font-family:sans-serif;fill:#0a418b;fill-opacity:1;stroke:none;stroke-width:0.161666"
         x="620.61267"
         y="514.55109"
         id="text96285"><tspan
           sodipodi:role="line"
           id="tspan96283"
           style="fill:#0a418b;fill-opacity:1;stroke-width:0.161666"
           x="620.61267"
           y="514.55109">TM</tspan></text>
    </g>
  </g>
</svg>
